<svg width="51" height="50" viewBox="0 0 51 50" fill="none" xmlns="http://www.w3.org/2000/svg">
<rect width="50" height="50" transform="translate(0.5)" fill="white"/>
<path d="M13.9479 39.5833L4.66663 46.875V8.33333C4.66663 7.7808 4.88612 7.25089 5.27682 6.86019C5.66752 6.46949 6.19743 6.25 6.74996 6.25H44.25C44.8025 6.25 45.3324 6.46949 45.7231 6.86019C46.1138 7.25089 46.3333 7.7808 46.3333 8.33333V37.5C46.3333 38.0525 46.1138 38.5824 45.7231 38.9731C45.3324 39.3638 44.8025 39.5833 44.25 39.5833H13.9479ZM24.027 25.2521L18.8708 20.0958L15.925 23.0437L24.027 31.1458L35.8125 19.3604L32.8666 16.4146L24.027 25.2521Z" fill="#47B403"/>
</svg>
