<svg width="12" height="12" viewBox="0 0 12 12" fill="none" xmlns="http://www.w3.org/2000/svg">
<rect width="11.8328" height="12" fill="white"/>
<path d="M8.51952 4.63992C8.58484 4.56884 8.6204 4.47481 8.61871 4.37766C8.61702 4.28051 8.57821 4.18782 8.51046 4.11911C8.44271 4.05041 8.35131 4.01105 8.25551 4.00934C8.15972 4.00762 8.067 4.04368 7.99691 4.10992L5.05351 7.09492L3.83572 5.85992C3.76563 5.79368 3.67291 5.75762 3.57712 5.75934C3.48132 5.76105 3.38992 5.80041 3.32217 5.86911C3.25442 5.93782 3.21562 6.03051 3.21392 6.12766C3.21223 6.22481 3.24779 6.31884 3.31311 6.38992L4.7922 7.88992C4.86154 7.96015 4.95552 7.99959 5.05351 7.99959C5.1515 7.99959 5.24548 7.96015 5.31482 7.88992L8.51952 4.63992Z" fill="#6F6F70"/>
<path d="M1.84889 1H9.98391C10.4602 1 10.8467 1.392 10.8467 1.875V10.125C10.8467 10.3571 10.7558 10.5796 10.594 10.7437C10.4322 10.9078 10.2127 11 9.98391 11H1.84889C1.62006 11 1.4006 10.9078 1.23879 10.7437C1.07699 10.5796 0.986084 10.3571 0.986084 10.125V1.875C0.986084 1.392 1.37262 1 1.84889 1ZM1.72563 1.875V10.125C1.72563 10.194 1.78085 10.25 1.84889 10.25H9.98391C10.0166 10.25 10.0479 10.2368 10.0711 10.2134C10.0942 10.1899 10.1072 10.1582 10.1072 10.125V1.875C10.1072 1.84185 10.0942 1.81005 10.0711 1.78661C10.0479 1.76317 10.0166 1.75 9.98391 1.75H1.84889C1.8162 1.75 1.78485 1.76317 1.76173 1.78661C1.73862 1.81005 1.72563 1.84185 1.72563 1.875Z" fill="#6F6F70"/>
</svg>
