<svg width="50" height="50" viewBox="0 0 50 50" fill="none" xmlns="http://www.w3.org/2000/svg">
<path d="M13.3052 39.0705L4.16675 46.25V8.30128C4.16675 7.75725 4.38286 7.2355 4.76755 6.85081C5.15224 6.46612 5.674 6.25 6.21803 6.25H43.1411C43.6851 6.25 44.2069 6.46612 44.5916 6.85081C44.9763 7.2355 45.1924 7.75725 45.1924 8.30128V37.0192C45.1924 37.5633 44.9763 38.085 44.5916 38.4697C44.2069 38.8544 43.6851 39.0705 43.1411 39.0705H13.3052ZM23.2293 24.9597L18.1524 19.8828L15.2519 22.7854L23.2293 30.7628L34.8334 19.1587L31.9329 16.2582L23.2293 24.9597Z" fill="white"/>
</svg>
