<svg width="22" height="20" viewBox="0 0 22 20" fill="none" xmlns="http://www.w3.org/2000/svg">
<path id="Vector" d="M0 0V20H22V0H0ZM2 1.81818H20V18.1818H2V1.81818ZM11 3.63636C9.07 3.63636 7.5 5.06364 7.5 6.81818C7.5 8.57273 9.07 10 11 10C12.93 10 14.5 8.57273 14.5 6.81818C14.5 5.06364 12.93 3.63636 11 3.63636ZM11 5.45455C11.827 5.45455 12.5 6.06636 12.5 6.81818C12.5 7.57 11.827 8.18182 11 8.18182C10.173 8.18182 9.5 7.57 9.5 6.81818C9.5 6.06636 10.173 5.45455 11 5.45455ZM7.86 10.0091C7.66408 10.0343 7.4808 10.1118 7.33334 10.2317C7.18589 10.3517 7.08089 10.5087 7.03164 10.6829C6.98239 10.8572 6.9911 11.0407 7.05667 11.2105C7.12225 11.3802 7.24173 11.5284 7.4 11.6364C8.0921 12.1059 8.88867 12.4323 9.734 12.5927L7.293 14.8118C7.10549 14.9823 7.00015 15.2135 7.00015 15.4545C7.00015 15.6956 7.10549 15.9268 7.293 16.0973C7.48051 16.2677 7.73482 16.3635 8 16.3635C8.26518 16.3635 8.51949 16.2677 8.707 16.0973L11 14.0127L13.293 16.0973C13.3857 16.182 13.4958 16.2492 13.6171 16.2951C13.7385 16.341 13.8686 16.3646 14 16.3646C14.1314 16.3646 14.2615 16.341 14.3829 16.2951C14.5042 16.2492 14.6143 16.182 14.707 16.0973C14.7999 16.0129 14.8737 15.9127 14.924 15.8024C14.9743 15.6922 15.0002 15.5739 15.0002 15.4545C15.0002 15.3352 14.9743 15.2169 14.924 15.1066C14.8737 14.9964 14.7999 14.8962 14.707 14.8118L12.266 12.5927C13.1112 12.432 13.9077 12.1056 14.6 11.6364C15.04 11.3345 15.13 10.7636 14.799 10.3636C14.7204 10.2679 14.6217 10.1873 14.5087 10.1263C14.3957 10.0654 14.2706 10.0253 14.1405 10.0084C14.0105 9.9915 13.878 9.99812 13.7507 10.0279C13.6235 10.0576 13.504 10.11 13.399 10.1818C12.005 11.1336 9.991 11.1318 8.599 10.1818C8.49436 10.1099 8.3751 10.0576 8.24809 10.0278C8.12108 9.99796 7.98885 9.99131 7.859 10.0082L7.86 10.0091Z" fill="#47B403"/>
</svg>
