<svg width="80" height="80" viewBox="0 0 80 80" fill="none" xmlns="http://www.w3.org/2000/svg">
<rect width="80" height="80" fill="#47B403"/>
<path d="M51.5429 50.2575C49.2081 49.3515 48.2759 46.8615 48.2759 46.8615C48.2759 46.8615 47.224 47.4255 47.224 45.8415C47.224 44.2575 48.2759 46.8615 49.3278 40.7455C49.3278 40.7455 52.2421 39.9515 51.6584 33.3855H50.9571C50.9571 33.3855 52.7103 26.3655 50.9571 23.9855C49.204 21.6095 48.5069 20.0255 44.6521 18.8915C40.7973 17.7575 42.2018 17.9835 39.3989 18.0995C36.5939 18.2155 34.2591 19.6855 34.2591 20.4795C34.2591 20.4795 32.506 20.5915 31.8089 21.2715C31.1076 21.9515 29.9403 25.1195 29.9403 25.9115C29.9403 26.7035 30.5239 32.0315 31.1076 33.1615L30.4126 33.3895C29.8268 39.9555 32.7432 40.7495 32.7432 40.7495C33.7951 46.8655 34.8469 44.2615 34.8469 45.8455C34.8469 47.4295 33.7951 46.8655 33.7951 46.8655C33.7951 46.8655 32.8628 49.3555 30.5281 50.2615C28.1933 51.1655 15.2326 56.0335 14.1786 57.0535C13.1226 58.0735 13.2422 62.8295 13.2422 62.8295H68.8204C68.8204 62.8295 68.9442 58.0755 67.8882 57.0535C66.8363 56.0335 53.8735 51.1655 51.5388 50.2615L51.5429 50.2575ZM25.8235 49.9135C25.6172 49.5535 25.5183 49.2935 25.5183 49.2935C25.5183 49.2935 24.6272 49.7735 24.6272 48.4295C24.6272 47.0855 25.5182 49.2935 26.4092 44.1095C26.4092 44.1095 28.8842 43.4395 28.3892 37.8735H27.7911C27.7911 37.8735 28.0881 36.6935 28.282 35.2055C28.2733 34.5407 28.2988 33.8759 28.3583 33.2135L28.4367 32.3615C28.3954 31.3775 28.216 30.4815 27.7932 29.9095C26.3082 27.8955 25.7142 26.5495 22.4513 25.5895C19.1843 24.6295 20.3682 24.8215 17.9963 24.9195C15.6203 25.0195 13.6403 26.2635 13.6403 26.9395C13.6403 26.9395 12.1553 27.0335 11.5613 27.6095C11.0044 28.1495 10.1073 30.5335 10 31.3795V31.9395C10.099 33.2475 10.5363 36.8395 10.9694 37.6855L10.3795 37.8775C9.8845 43.4415 12.3595 44.1135 12.3595 44.1135C13.2464 49.2935 14.1394 47.0895 14.1394 48.4335C14.1394 49.7775 13.2484 49.2935 13.2484 49.2935C13.2484 49.2935 12.4585 51.4095 10.4785 52.1735L10 52.3575V62.8255H11.1859C11.1241 60.2695 11.3448 56.9715 12.7246 55.6375C13.4609 54.9275 15.8678 53.7575 25.8276 49.9135H25.8235ZM71.8791 31.8015C71.7966 31.0455 71.6172 30.3715 71.2769 29.9095C69.796 27.8935 69.1999 26.5495 65.935 25.5895C62.6701 24.6295 63.8581 24.8215 61.48 24.9195C59.1081 25.0195 57.1281 26.2635 57.1281 26.9395C57.1281 26.9395 55.6431 27.0335 55.0491 27.6095C54.4923 28.1535 53.5848 30.5535 53.4858 31.3895H53.5538L53.7188 33.2175C53.7601 33.6775 53.7642 34.0875 53.7745 34.5055C53.9601 35.8375 54.2076 37.2055 54.4551 37.6855L53.8653 37.8755C53.3703 43.4395 55.8453 44.1115 55.8453 44.1115C56.7363 49.2915 57.6252 47.0875 57.6252 48.4315C57.6252 49.7755 56.7383 49.2915 56.7383 49.2915C56.7383 49.2915 56.6269 49.5775 56.4001 49.9715C66.2382 53.7715 68.6245 54.9315 69.3526 55.6375C70.7344 56.9735 70.9489 60.2695 70.8891 62.8275H71.8791V52.2175L71.776 52.1735C69.796 51.4075 69.004 49.2935 69.004 49.2935C69.004 49.2935 68.1109 49.7735 68.1109 48.4335C68.1109 47.0935 69.004 49.2935 69.8929 44.1135C69.8929 44.1135 71.5512 43.6535 71.8791 40.4335V37.9775C71.8791 37.9415 71.8791 37.9115 71.8729 37.8775H71.2748C71.2748 37.8775 71.7203 36.0975 71.8791 34.1535V31.8015Z" fill="white"/>
</svg>
