<svg width="80" height="80" viewBox="0 0 80 80" fill="none" xmlns="http://www.w3.org/2000/svg">
<rect width="80" height="80" fill="white"/>
<path d="M40 61.875L30.35 56.7297C27.599 55.2661 25.2984 53.081 23.6952 50.4089C22.092 47.7369 21.2467 44.6786 21.25 41.5625V21.25C21.2508 20.4215 21.5803 19.6271 22.1662 19.0412C22.7521 18.4553 23.5465 18.1258 24.375 18.125H55.625C56.4536 18.1258 57.2479 18.4553 57.8338 19.0412C58.4197 19.6271 58.7492 20.4215 58.75 21.25V41.5625C58.7533 44.6786 57.908 47.7369 56.3048 50.4089C54.7016 53.081 52.4011 55.2661 49.65 56.7297L40 61.875ZM24.375 21.25V41.5625C24.3724 44.1122 25.0642 46.6145 26.3762 48.8007C27.6882 50.987 29.5708 52.7746 31.8219 53.9719L40 58.3328L48.1781 53.9734C50.4295 52.7761 52.3122 50.9881 53.6242 48.8016C54.9362 46.6151 55.6279 44.1125 55.625 41.5625V21.25H24.375Z" fill="#47B403"/>
<path d="M40 54.4953V24.375H52.5V41.2578C52.4999 43.2383 51.9621 45.1816 50.9439 46.8804C49.9257 48.5791 48.4654 49.9695 46.7187 50.9031L40 54.4953Z" fill="#47B403"/>
</svg>
