<svg width="22" height="22" viewBox="0 0 22 22" fill="none" xmlns="http://www.w3.org/2000/svg">
<path d="M1.11241 8.76989C3.67737 14.3555 8.23495 18.7826 13.8927 21.1842L14.8012 21.589C15.8073 22.037 16.9392 22.1155 17.9975 21.8107C19.0558 21.5059 19.9725 20.8374 20.5862 19.923L21.7739 18.1541C21.9598 17.8767 22.035 17.5397 21.9848 17.2096C21.9346 16.8795 21.7626 16.5801 21.5027 16.3705L17.4786 13.124C17.3385 13.011 17.1769 12.9275 17.0037 12.8785C16.8305 12.8295 16.6492 12.816 16.4706 12.8388C16.292 12.8617 16.1199 12.9204 15.9646 13.0114C15.8093 13.1024 15.674 13.2238 15.5668 13.3685L14.3216 15.0478C11.1253 13.4692 8.53816 10.8816 6.96016 7.68504L8.63819 6.43988C8.78281 6.33268 8.90427 6.19735 8.99529 6.04204C9.0863 5.88672 9.14498 5.71462 9.16782 5.53605C9.19065 5.35749 9.17717 5.17615 9.12817 5.00293C9.07917 4.82971 8.99567 4.66818 8.88268 4.52804L5.63616 0.503954C5.42654 0.244036 5.12718 0.072038 4.79706 0.0218398C4.46694 -0.0283583 4.12999 0.0468832 3.85258 0.232743L2.07167 1.42714C1.15169 2.04409 0.480595 2.96759 0.177937 4.03313C-0.124722 5.09867 -0.0392879 6.23706 0.419018 7.24549L1.11241 8.76989Z" fill="#1F8C0A"/>
</svg>
